<?xml version="1.0" standalone="no"?>
<!DOCTYPE svg PUBLIC "-//W3C//DTD SVG 20010904//EN"
 "http://www.w3.org/TR/2001/REC-SVG-20010904/DTD/svg10.dtd">
<svg version="1.0" xmlns="http://www.w3.org/2000/svg"
 width="500.000000pt" height="500.000000pt" viewBox="0 0 500.000000 500.000000"
 preserveAspectRatio="xMidYMid meet">

<g transform="translate(0.000000,500.000000) scale(0.100000,-0.100000)"
fill="#000000" stroke="none">
<path d="M1453 4906 c-94 -30 -180 -100 -229 -186 -56 -97 -54 -7 -54 -2215 0
-1246 4 -2063 10 -2098 25 -156 146 -283 298 -316 75 -16 1969 -16 2044 0 152
33 273 160 298 316 6 35 10 852 10 2098 0 2209 2 2118 -54 2215 -38 68 -102
127 -175 163 l-66 32 -1020 2 c-824 1 -1028 -1 -1062 -11z m361 -153 c2 -10
17 -79 31 -153 33 -168 42 -198 65 -210 12 -6 231 -10 590 -10 359 0 578 4
590 10 23 12 32 42 65 210 14 74 29 143 32 154 5 17 15 18 152 14 119 -4 154
-8 191 -25 50 -22 93 -62 118 -108 16 -28 17 -196 20 -2120 3 -2310 8 -2135
-61 -2205 -17 -18 -52 -43 -77 -54 -45 -21 -51 -21 -1030 -21 -980 0 -985 0
-1030 21 -56 26 -97 67 -121 119 -18 38 -19 124 -19 2125 0 2001 1 2087 19
2125 21 45 62 90 104 112 45 23 103 31 234 32 108 1 122 -1 127 -16z m1209 9
c3 -4 -5 -57 -17 -117 l-22 -110 -484 0 -484 0 -22 110 c-12 60 -20 113 -17
117 6 10 1040 10 1046 0z"/>
<path d="M2430 2513 c-106 -285 -195 -524 -198 -530 -3 -10 12 -13 57 -13 34
0 61 2 61 3 0 2 88 237 195 521 107 285 195 522 195 527 0 5 -26 9 -58 9 l-59
0 -193 -517z"/>
<path d="M1815 2750 l-290 -158 0 -93 0 -94 298 -161 297 -162 0 104 0 104
-205 102 c-113 57 -205 106 -205 109 0 3 92 50 205 105 l205 98 0 103 c0 57
-3 103 -7 102 -5 0 -138 -71 -298 -159z"/>
<path d="M2890 2807 l0 -104 205 -99 c113 -54 205 -101 205 -105 0 -3 -92 -50
-205 -105 l-205 -99 0 -103 c0 -57 4 -102 9 -100 5 2 138 73 295 158 l286 155
-2 95 -3 94 -190 104 c-104 57 -236 128 -292 158 l-103 56 0 -105z"/>
<path d="M1535 540 c-54 -21 -65 -89 -21 -127 27 -23 29 -23 285 -23 242 0
258 1 278 20 46 43 36 110 -19 129 -37 13 -493 14 -523 1z"/>
<path d="M2233 535 c-37 -16 -51 -53 -37 -94 14 -38 49 -52 123 -48 52 2 67 7
82 26 22 27 24 68 5 93 -28 38 -114 49 -173 23z"/>
</g>
</svg>
